# xmcd CD database file
#
# Track frame offsets:
#	150
#	11840
#	22860
#	33058
#	46438
#	55183
#	65795
#	76500
#	87323
#	97205
#
# Disc length: 1446 seconds
#
# Revision: 6
# Processed by: cddbd v1.5.2PL0 Copyright (c) Steve Scherf et al.
# Submitted via: CDex 1.51
#
DISCID=7405a40a
DTITLE=Various Artist - The Best Of Cajun Country
DYEAR=1989
DGENRE=Cajun
TTITLE0=Rusty and Doug Kershaw/Louisiana Man
TTITLE1=Fiddlin' Freddie Borke/(Let's Go to) Big Mamou
TTITLE2=Jimmy C. Newman/Colinda
TTITLE3=Johnny Paycheck/Jolé Blon
TTITLE4=Rod Bernard/Papa Thibodeaux
TTITLE5=Cleveland Crochet and the Sugar Bees/Sugar Bee
TTITLE6=Don Willimas/Louisiana Saturday Night
TTITLE7=Papa Link Davis/Let's Go to Big Houston
TTITLE8=Jo-El Sonnier/Knock, Knock, Knock
TTITLE9=Guy and Ralna/Diggy Liggy Lo
EXTD=Various Artists YEAR: 1989
EXTT0=Rusty and Doug Kershaw
EXTT1=Fiddlin' Frenchie Bourke
EXTT2=Jimmy C. Newman
EXTT3=Johnny Paycheck
EXTT4=Rod Bernard
EXTT5=Cleveland Crochet and The Sugar Bees
EXTT6=Don Williams
EXTT7=Papa Link Davis
EXTT8=Joel Sonnier
EXTT9=Guy and Raina
PLAYORDER=
